<?xml version="1.0"?>
<!-- https://game-icons.net/delapouite/originals/lunar-module.html -->
<svg xmlns="http://www.w3.org/2000/svg" style="height: 512px; width: 512px;" viewBox="0 0 512 512">
  <g class="" style="touch-action: none;" transform="translate(0,0)">
    <g transform="translate(51.2, 51.2) scale(0.8, 0.8) rotate(0, 256, 256)">
      <path d="M144 23C134.718 23 127 30.718 127 40C127 45.99 130.224 51.317 135 54.35L135 94.81L119.844 102.19L91.68 228.93L168.18 216.18L183.418 124.746L231.686 47.732L153 86.047L153 54.35C157.776 51.317 161 45.99 161 40C161 30.718 153.282 23 144 23Z" class="" fill="#9b9b9b" fill-opacity="1"/>
      <path d="M256 42.832L202.62 128L309.38 128L256 42.832Z" class="" fill="#9b9b9b" fill-opacity="1"/>
      <path d="M416 45C391.04 45 371 65.04 371 90C371 114.96 391.04 135 416 135C440.96 135 461 114.96 461 90C461 65.04 440.96 45 416 45Z" class="" fill="#9b9b9b" fill-opacity="1"/>
      <path d="M280.314 47.732L328.582 124.746L343.65 215.16L420.287 228.777L403.152 151.672C374.586 145.708 353 120.287 353 90C353 87.737 353.126 85.503 353.36 83.3L280.314 47.732Z" class="" fill="#9b9b9b" fill-opacity="1"/>
      <path d="M416 71C425.282 71 433 78.718 433 88C433 97.282 425.282 105 416 105C406.718 105 399 97.282 399 88C399 78.718 406.718 71 416 71Z" class="" fill="#9b9b9b" fill-opacity="1"/>
      <path d="M128 119L160 119L160 137L128 137L128 119Z" class="" fill="#9b9b9b" fill-opacity="1"/>
      <path d="M192 208L208 240L304 240L320 208L192 208Z" class="selected" fill="#9b9b9b" fill-opacity="1"/>
      <path d="M341.88 233.13L302.42 325.197L393.568 311.847L419.535 246.927L341.879 233.129Z" class="" fill="#9b9b9b" fill-opacity="1"/>
      <path d="M170.412 234.055L92.51 247.04L118.432 311.846L207.926 324.956L170.412 234.056Z" class="" fill="#9b9b9b" fill-opacity="1"/>
      <path d="M198.942 256L228.652 327.992L256 331.998L281.527 328.258L312.494 256L198.944 256Z" class="" fill="#9b9b9b" fill-opacity="1"/>
      <path d="M113.98 329.385L58.15 455L32 455L32 473L96 473L96 455L77.85 455L84.393 440.28C84.547 440.22 84.678 440.158 84.879 440.1C86.289 439.687 87.969 439.142 89.976 438.463C93.99 437.105 99.272 435.213 105.44 432.949C117.78 428.419 133.627 422.411 149.3 416.403C168.26 409.136 184.264 402.917 196.082 398.31L247 436.5L247 471L224 471L224 489L288 489L288 471L265 471L265 436.5L315.918 398.31C327.736 402.918 343.738 409.137 362.698 416.404C378.373 422.412 394.221 428.421 406.558 432.949C412.728 435.212 418.008 437.104 422.023 438.462C424.03 439.142 425.71 439.686 427.121 440.099C427.323 440.157 427.454 440.219 427.608 440.279L434.15 455L416 455L416 473L480 473L480 455L453.85 455L398.02 329.387L379.527 332.097L417.623 417.814C416.023 417.236 414.526 416.698 412.763 416.051C400.579 411.581 384.773 405.589 369.141 399.597C354.837 394.114 341.011 388.757 329.853 384.421L354.157 335.813L332.442 338.993L314.44 375L265 375L265 348.87L256 350.19L247 348.87L247 375L197.562 375L179.559 338.992L157.841 335.812L182.145 384.42C170.989 388.757 157.162 394.113 142.858 399.596C127.225 405.588 111.418 411.579 99.236 416.051C97.472 416.699 95.976 417.237 94.376 417.815L132.471 332.095L113.978 329.385Z" class="" fill="#9b9b9b" fill-opacity="1"/>
      <path d="M219 393L247 393L247 414L219 393Z" class="" fill="#9b9b9b" fill-opacity="1"/>
      <path d="M265 393L293 393L265 414L265 393Z" class="" fill="#9b9b9b" fill-opacity="1"/>
    </g>
  </g>
</svg>


